<svg xmlns="http://www.w3.org/2000/svg" x="0px" y="0px" width="100" height="100" viewBox="0 0 100 100">
<path d="M 39.292969 13.226562 C 34.260412 13.191152 29.221951 13.335951 24.191406 13.84375 C 23.063553 13.957362 21.565766 14.113341 20.529297 15.292969 C 19.93393 15.970505 19.711098 16.750887 19.542969 17.390625 C 19.29444 18.338085 19.103354 19.086106 18.986328 20.072266 C 17.96897 20.495815 17.019176 21.142356 16.423828 22.185547 C 15.915499 23.076406 15.767381 24.00161 15.626953 24.791016 C 14.636692 30.365404 11.087891 53.338818 11.087891 66.40625 C 11.087891 75.798478 13.072674 80.797967 15.269531 83.484375 C 16.36796 84.827579 17.517418 85.575203 18.427734 85.974609 C 18.882892 86.174313 19.277773 86.287811 19.578125 86.353516 C 19.878477 86.419216 20.185476 86.447813 20.113281 86.439453 C 37.435554 88.434023 66.426533 87.534812 78.814453 86.550781 A 1.0001 1.0001 0 0 0 79.048828 86.505859 C 83.660625 86.474096 86.657419 85.161023 88.25 82.660156 C 89.86212 80.128607 90.035247 76.729614 89.861328 72.642578 C 89.51349 64.468506 87.609058 53.2992 90.28125 40.396484 A 1.0001 1.0001 0 0 0 89.128906 39.208984 C 89.128906 39.208984 88.409166 39.335002 87.501953 39.439453 C 86.764838 39.52432 85.954548 39.562296 85.345703 39.542969 C 85.452862 38.887733 85.545677 38.283508 85.660156 37.599609 C 85.709096 37.309032 85.586136 36.967036 85.451172 36.798828 C 85.316211 36.630621 85.202293 36.571276 85.121094 36.529297 C 84.958695 36.445337 84.885796 36.439347 84.820312 36.425781 C 84.689347 36.398661 84.606554 36.393339 84.507812 36.386719 C 84.310333 36.373469 84.077185 36.369708 83.789062 36.367188 C 83.212817 36.362187 82.433871 36.365975 81.560547 36.359375 C 80.105529 36.348345 78.504107 36.23962 77.15625 36.072266 C 78.191617 31.834536 79.304714 27.665432 80.359375 23.869141 A 1.0001 1.0001 0 0 0 80.388672 23.136719 A 1.0001 1.0001 0 0 0 80.351562 23.044922 A 1.0001 1.0001 0 0 0 80.324219 22.988281 A 1.0001 1.0001 0 0 0 80.318359 22.976562 A 1.0001 1.0001 0 0 0 80.273438 22.902344 A 1.0001 1.0001 0 0 0 79.441406 22.449219 C 79.18104 22.392492 77.312564 21.996016 75.060547 21.972656 C 75.247447 21.221621 75.429076 20.474009 75.619141 19.720703 A 1.0001 1.0001 0 0 0 74.818359 18.490234 C 74.421186 18.421604 73.863771 18.391914 72.884766 18.341797 C 72.804702 18.337699 72.650957 18.334201 72.566406 18.330078 C 72.800455 17.311409 73.123047 15.90625 73.123047 15.90625 A 1.0001 1.0001 0 0 0 72.210938 14.685547 C 72.210938 14.685547 59.88084 13.930534 54.355469 13.693359 C 49.351877 13.478355 44.325525 13.261979 39.292969 13.226562 z M 39.279297 15.228516 C 44.264308 15.263672 49.266123 15.47641 54.269531 15.691406 C 59.377956 15.910684 69.460051 16.526957 70.908203 16.615234 C 70.764659 17.241903 70.642007 17.77644 70.533203 18.25 C 69.992418 18.230059 69.624297 18.21043 68.992188 18.191406 C 65.798716 18.095296 61.486215 18.016818 56.548828 18.005859 C 46.674053 17.983939 34.302395 18.234827 23.388672 19.181641 C 22.680946 19.243059 21.898593 19.326704 21.105469 19.470703 C 21.200408 18.991615 21.317098 18.513803 21.478516 17.898438 C 21.628386 17.328174 21.800617 16.875745 22.03125 16.613281 C 22.442781 16.144909 23.334479 15.940373 24.390625 15.833984 C 29.32608 15.335784 34.294286 15.193359 39.279297 15.228516 z M 56.544922 20.005859 C 61.46341 20.016779 65.759143 20.095929 68.931641 20.191406 C 70.517889 20.239146 71.822978 20.290786 72.78125 20.339844 C 73.131942 20.357794 73.141414 20.366166 73.402344 20.384766 C 69.803447 34.739957 66.726562 48.820679 66.726562 63.761719 C 66.726562 74.08386 69.493988 80.104517 72.650391 83.330078 C 64.811098 83.985456 40.14046 84.043128 29.117188 83.669922 C 18.132111 83.298008 16.013008 81.257862 13.736328 74.458984 C 13.340282 72.280444 13.087891 69.646977 13.087891 66.40625 C 13.087891 53.705682 16.627964 30.588237 17.595703 25.140625 C 17.735275 24.356031 17.878438 23.672922 18.162109 23.175781 C 18.554503 22.488215 19.274686 22.034067 20.263672 21.720703 C 21.252657 21.407339 22.454321 21.269999 23.5625 21.173828 C 34.376776 20.235642 46.707947 19.984026 56.544922 20.005859 z M 75.318359 23.974609 C 76.492905 24.003764 77.478511 24.145759 78.1875 24.265625 C 75.851464 32.68918 73.188083 42.538237 72.033203 52.113281 C 70.832212 62.070634 71.232518 71.698555 75.554688 78.902344 C 76.856174 81.07149 79.573668 82.19493 81.917969 81.283203 C 83.090119 80.82734 84.101809 79.809113 84.632812 78.326172 C 85.163817 76.843231 85.261997 74.915418 84.808594 72.443359 C 82.674533 60.811567 83.161626 53.325826 85.021484 41.546875 C 85.896807 41.606989 86.877649 41.52397 87.730469 41.425781 C 87.95859 41.399521 87.941591 41.394127 88.140625 41.367188 C 85.800203 54.07416 87.537708 65.077664 87.863281 72.728516 C 88.032112 76.69598 87.753943 79.714987 86.5625 81.585938 C 85.371057 83.456887 83.250172 84.517578 78.892578 84.517578 C 76.370533 84.517578 68.726563 80.512485 68.726562 63.761719 C 68.726562 50.158537 71.32375 37.208935 74.5625 23.982422 C 74.81722 23.977859 75.07862 23.968659 75.318359 23.974609 z M 50.039062 24.693359 C 35.568413 24.713779 22.931641 25.744141 22.931641 25.744141 A 1.0003591 1.0003591 0 1 0 23.09375 27.738281 C 23.09375 27.738281 45.494587 25.921711 64.599609 27.082031 A 1.0008566 1.0008566 0 1 0 64.720703 25.083984 C 59.889459 24.790565 54.862612 24.686552 50.039062 24.693359 z M 54.476562 32.412109 C 53.553536 32.420448 52.661742 32.435518 51.824219 32.455078 C 48.474125 32.533318 46.005859 32.675781 46.005859 32.675781 A 1.0001 1.0001 0 0 0 45.082031 33.484375 C 43.728792 40.503607 43.984375 44.160156 43.984375 44.160156 A 1.0001 1.0001 0 0 0 44.939453 45.085938 C 44.939453 45.085938 55.65134 45.540116 61.810547 45.083984 A 1.0001 1.0001 0 0 0 62.736328 44.119141 C 62.903068 38.999248 63.845703 33.798828 63.845703 33.798828 A 1.0001 1.0001 0 0 0 62.935547 32.621094 C 60.288864 32.426839 57.245642 32.387094 54.476562 32.412109 z M 32.318359 32.759766 C 30.506235 32.735694 28.750094 32.751011 27.214844 32.783203 C 24.144343 32.847583 21.955078 32.976562 21.955078 32.976562 A 1.0001 1.0001 0 0 0 21.03125 33.785156 C 19.678011 40.804388 19.933594 44.460938 19.933594 44.460938 A 1.0001 1.0001 0 0 0 20.884766 45.386719 C 20.884766 45.386719 30.632213 45.839269 36.783203 45.384766 A 1.0001 1.0001 0 0 0 37.710938 44.386719 C 37.710938 40.409075 38.673828 34.126953 38.673828 34.126953 A 1.0001 1.0001 0 0 0 37.759766 32.976562 C 35.998592 32.8473 34.130484 32.783838 32.318359 32.759766 z M 76.673828 38.033203 C 78.229339 38.245505 80.006167 38.347705 81.544922 38.359375 C 82.335261 38.365375 82.988941 38.364687 83.521484 38.367188 C 81.287902 51.890924 80.503051 60.055293 82.841797 72.802734 C 83.251894 75.038676 83.118248 76.623941 82.75 77.652344 C 82.381755 78.680746 81.827209 79.171457 81.193359 79.417969 C 80.016847 79.875528 78.345338 79.296985 77.46875 78.144531 C 77.956301 78.063206 78.410619 77.887665 78.800781 77.658203 C 79.417464 77.295763 79.821087 76.652992 79.986328 75.994141 C 80.151569 75.335289 80.15213 74.633076 80.09375 73.826172 C 79.97699 72.212364 79.593495 70.150734 79.261719 67.462891 C 78.598165 62.087205 78.113009 54.25381 80.3125 43.332031 A 1.0001 1.0001 0 0 0 79.279297 42.136719 C 77.662706 42.224555 76.494757 42.110076 75.787109 42.023438 C 76.070083 40.687554 76.364341 39.355444 76.673828 38.033203 z M 75.398438 43.943359 C 75.910212 43.97466 76.860893 44.039015 78.175781 44.076172 C 76.199645 54.616019 76.62388 62.415041 77.277344 67.708984 C 77.616442 70.456141 77.995447 72.558011 78.097656 73.970703 C 78.148756 74.677049 78.122515 75.206227 78.046875 75.507812 C 77.971235 75.809399 77.919927 75.857487 77.787109 75.935547 C 77.42342 76.149441 77.013214 76.236147 76.748047 76.179688 C 76.491431 76.125048 76.247539 76.002666 75.984375 75.363281 C 75.975605 75.341974 75.9678 75.331091 75.958984 75.308594 A 1.0006747 1.0006747 0 0 0 75.951172 75.291016 C 73.23438 68.995633 72.990743 60.881192 74.019531 52.351562 C 74.354835 49.57158 74.839871 46.753873 75.398438 43.943359 z M 60.933594 50.261719 A 1.0001 1.0001 0 0 0 60.863281 50.263672 C 39.011911 51.189121 20.082031 50.787109 20.082031 50.787109 A 1.0001 1.0001 0 1 0 20.039062 52.785156 C 20.039062 52.785156 39.024589 53.19027 60.949219 52.261719 A 1.0001 1.0001 0 0 0 60.933594 50.261719 z M 60.488281 56.980469 A 1.0001 1.0001 0 0 0 60.417969 56.982422 C 38.578578 57.907316 19.125 57.134766 19.125 57.134766 A 1.0001 1.0001 0 1 0 19.046875 59.132812 C 19.046875 59.132812 38.567295 59.909528 60.503906 58.980469 A 1.0001 1.0001 0 0 0 60.488281 56.980469 z M 18.599609 63.958984 A 1.0001 1.0001 0 0 0 18.580078 65.957031 C 18.580078 65.957031 26.480915 66.427768 36.359375 66.115234 A 1.0004882 1.0004882 0 1 0 36.296875 64.115234 C 26.515335 64.424701 18.699219 63.960938 18.699219 63.960938 A 1.0001 1.0001 0 0 0 18.599609 63.958984 z M 42.837891 64.113281 A 1.0001 1.0001 0 0 0 42.785156 66.111328 C 42.785156 66.111328 51.987147 66.81906 61.240234 66.111328 A 1.0001 1.0001 0 1 0 61.087891 64.117188 C 52.036978 64.809455 42.9375 64.117188 42.9375 64.117188 A 1.0001 1.0001 0 0 0 42.837891 64.113281 z M 43.650391 70.371094 A 1.0001 1.0001 0 0 0 43.671875 72.371094 C 43.671875 72.371094 56.463866 72.883847 61.5 72.6875 A 1.0001 1.0001 0 1 0 61.421875 70.689453 C 56.660018 70.875107 43.75 70.371094 43.75 70.371094 A 1.0001 1.0001 0 0 0 43.650391 70.371094 z M 36.671875 70.533203 C 31.852861 70.721085 19.09375 70.630859 19.09375 70.630859 A 1.0001 1.0001 0 1 0 19.078125 72.630859 C 19.078125 72.630859 31.769061 72.727323 36.748047 72.533203 A 1.000725 1.000725 0 1 0 36.671875 70.533203 z M 20.544922 76.408203 A 1.0001 1.0001 0 0 0 20.453125 78.404297 C 20.453125 78.404297 30.659332 79.394114 37.759766 78.873047 A 1.0001 1.0001 0 1 0 37.613281 76.878906 C 30.841715 77.375839 20.644531 76.414063 20.644531 76.414062 A 1.0001 1.0001 0 0 0 20.544922 76.408203 z M 44.730469 76.5625 A 1.0001 1.0001 0 0 0 44.666016 78.560547 C 44.666016 78.560547 56.373257 79.549195 63.484375 79.027344 A 1.0001 1.0001 0 1 0 63.337891 77.033203 C 56.577008 77.529352 44.830078 76.568359 44.830078 76.568359 A 1.0001 1.0001 0 0 0 44.730469 76.5625 z"></path>
</svg>